<svg width="1749" height="208" viewBox="0 0 1749 208" fill="none" xmlns="http://www.w3.org/2000/svg">
<path d="M46.592 205H0.512002V3.39999H35.648C60.992 3.39999 80.096 8.10399 92.96 17.512C105.824 26.728 112.256 39.784 112.256 56.68C112.256 75.88 104.192 89.992 88.064 99.016C111.488 107.848 123.2 124.456 123.2 148.84C123.2 166.12 116.864 179.848 104.192 190.024C91.52 200.008 72.32 205 46.592 205ZM46.592 196.36C55.616 196.36 63.872 195.688 71.36 194.344C78.848 192.808 85.952 190.408 92.672 187.144C99.584 183.688 104.96 178.696 108.8 172.168C112.64 165.64 114.56 157.864 114.56 148.84C114.56 128.296 104.672 114.376 84.896 107.08L67.616 100.744L83.744 91.528C96.992 84.232 103.616 72.616 103.616 56.68C103.616 26.92 80.96 12.04 35.648 12.04H9.152V196.36H46.592ZM175.933 205H167.293V3.39999H175.933V205ZM344.857 186.28C334.297 200.68 317.209 207.88 293.593 207.88C269.977 207.88 252.889 200.68 242.328 186.28C231.769 171.688 226.489 149.032 226.489 118.312V90.088C226.489 59.368 231.769 36.808 242.328 22.408C252.889 7.81599 269.977 0.519989 293.593 0.519989C317.209 0.519989 334.297 7.81599 344.857 22.408C355.417 36.808 360.697 59.368 360.697 90.088V118.312C360.697 149.032 355.417 171.688 344.857 186.28ZM317.785 12.904C311.065 10.408 303.001 9.16 293.593 9.16C284.185 9.16 276.121 10.408 269.401 12.904C262.681 15.208 256.633 19.24 251.257 25C245.881 30.76 241.849 39.112 239.161 50.056C236.473 60.808 235.129 74.152 235.129 90.088V118.312C235.129 134.248 236.473 147.688 239.161 158.632C241.849 169.384 245.881 177.64 251.257 183.4C256.633 189.16 262.681 193.288 269.401 195.784C276.121 198.088 284.185 199.24 293.593 199.24C303.001 199.24 311.065 198.088 317.785 195.784C324.505 193.288 330.553 189.16 335.929 183.4C341.305 177.64 345.337 169.384 348.025 158.632C350.713 147.688 352.057 134.248 352.057 118.312V90.088C352.057 74.152 350.713 60.808 348.025 50.056C345.337 39.112 341.305 30.76 335.929 25C330.553 19.24 324.505 15.208 317.785 12.904ZM436.186 196.36H549.658V23.848L484.858 162.664L420.058 23.56V205L411.418 204.712V3.11199H420.058L484.858 142.216L549.658 3.39999L558.298 3.11199V205L436.186 204.712V196.36ZM718.717 99.592H633.181L721.309 12.04H623.965V196.36H735.709V205H615.325V3.39999H742.333L654.205 90.952H718.717V99.592ZM991.192 168.136C986.008 180.808 978.712 190.6 969.304 197.512C959.896 204.424 945.784 207.88 926.968 207.88C903.352 207.88 886.264 200.68 875.703 186.28C865.144 171.688 859.864 149.032 859.864 118.312V90.088C859.864 59.368 865.144 36.808 875.703 22.408C886.264 7.81599 903.352 0.519989 926.968 0.519989C945.784 0.519989 959.896 3.97599 969.304 10.888C978.712 17.8 986.008 27.592 991.192 40.264L983.416 44.008C979 32.872 972.76 24.328 964.696 18.376C956.632 12.232 944.056 9.16 926.968 9.16C917.56 9.16 909.496 10.408 902.776 12.904C896.056 15.208 890.008 19.24 884.632 25C879.256 30.76 875.224 39.112 872.536 50.056C869.848 60.808 868.504 74.152 868.504 90.088V118.312C868.504 134.248 869.848 147.688 872.536 158.632C875.224 169.384 879.256 177.64 884.632 183.4C890.008 189.16 896.056 193.288 902.776 195.784C909.496 198.088 917.56 199.24 926.968 199.24C944.056 199.24 956.632 196.264 964.696 190.312C972.76 184.168 979 175.528 983.416 164.392L991.192 168.136ZM1147.26 186.28C1136.7 200.68 1119.61 207.88 1096 207.88C1072.38 207.88 1055.29 200.68 1044.73 186.28C1034.17 171.688 1028.89 149.032 1028.89 118.312V90.088C1028.89 59.368 1034.17 36.808 1044.73 22.408C1055.29 7.81599 1072.38 0.519989 1096 0.519989C1119.61 0.519989 1136.7 7.81599 1147.26 22.408C1157.82 36.808 1163.1 59.368 1163.1 90.088V118.312C1163.1 149.032 1157.82 171.688 1147.26 186.28ZM1120.19 12.904C1113.47 10.408 1105.41 9.16 1096 9.16C1086.59 9.16 1078.53 10.408 1071.81 12.904C1065.09 15.208 1059.04 19.24 1053.66 25C1048.29 30.76 1044.25 39.112 1041.57 50.056C1038.88 60.808 1037.53 74.152 1037.53 90.088V118.312C1037.53 134.248 1038.88 147.688 1041.57 158.632C1044.25 169.384 1048.29 177.64 1053.66 183.4C1059.04 189.16 1065.09 193.288 1071.81 195.784C1078.53 198.088 1086.59 199.24 1096 199.24C1105.41 199.24 1113.47 198.088 1120.19 195.784C1126.91 193.288 1132.96 189.16 1138.33 183.4C1143.71 177.64 1147.74 169.384 1150.43 158.632C1153.12 147.688 1154.46 134.248 1154.46 118.312V90.088C1154.46 74.152 1153.12 60.808 1150.43 50.056C1147.74 39.112 1143.71 30.76 1138.33 25C1132.96 19.24 1126.91 15.208 1120.19 12.904ZM1236.29 196.36H1325.57L1222.46 18.088V205H1213.82V3.39999H1223.9L1331.62 189.736V3.39999H1340.26V205H1236.29V196.36ZM1500.59 99.592H1415.06L1503.18 12.04H1405.84V205H1397.2V3.39999H1524.21L1436.08 90.952H1500.59V99.592ZM1564.18 205H1555.54V3.39999H1564.18V205ZM1738.29 44.008C1733.87 32.872 1727.63 24.328 1719.57 18.376C1711.51 12.232 1698.93 9.16 1681.84 9.16C1672.43 9.16 1664.37 10.408 1657.65 12.904C1650.93 15.208 1644.88 19.24 1639.51 25C1634.13 30.76 1630.1 39.112 1627.41 50.056C1624.72 60.808 1623.38 74.152 1623.38 90.088V118.312C1623.38 134.248 1624.72 147.688 1627.41 158.632C1630.1 169.384 1634.13 177.64 1639.51 183.4C1644.88 189.16 1650.93 193.288 1657.65 195.784C1664.37 198.088 1672.43 199.24 1681.84 199.24C1699.12 199.24 1712.85 195.592 1723.03 188.296C1733.2 180.808 1738.29 172.84 1738.29 164.392V115.72H1702.87V107.08H1748.66V161.512C1748.66 174.376 1742.8 185.32 1731.09 194.344C1719.57 203.368 1703.15 207.88 1681.84 207.88C1658.23 207.88 1641.14 200.68 1630.58 186.28C1620.02 171.688 1614.74 149.032 1614.74 118.312V90.088C1614.74 59.368 1620.02 36.808 1630.58 22.408C1641.14 7.81599 1658.23 0.519989 1681.84 0.519989C1700.85 0.519989 1715.06 4.07199 1724.47 11.176C1733.87 18.088 1741.17 27.976 1746.35 40.84L1738.29 44.008Z" fill="url(#paint0_linear_36_3)"/>
<defs>
<linearGradient id="paint0_linear_36_3" x1="-28" y1="104.714" x2="1770" y2="104.714" gradientUnits="userSpaceOnUse">
<stop stop-color="#FFC517"/>
<stop offset="1" stop-color="#42B883"/>
</linearGradient>
</defs>
</svg>
